<svg width="32" height="32" viewBox="0 0 32 32" fill="none" xmlns="http://www.w3.org/2000/svg">
<g clip-path="url(#clip0_1_17)">
<rect width="32" height="32" fill="white"/>
<g clip-path="url(#clip1_1_17)">
<mask id="mask0_1_17" style="mask-type:luminance" maskUnits="userSpaceOnUse" x="1" y="0" width="30" height="32">
<path d="M30.3153 0H1.54077V32H30.3153V0Z" fill="white"/>
</mask>
<g mask="url(#mask0_1_17)">
<path d="M13.9326 31.4111L10.9964 29.7161V24.0651L15.8968 26.7699L20.7971 24.0651V29.7161L17.861 31.4111C17.264 31.7562 16.5865 31.9379 15.8968 31.9378C15.2072 31.9379 14.5297 31.7562 13.9326 31.4111ZM26.4733 10.613C26.4734 10.4643 26.4343 10.3183 26.36 10.1896C26.2857 10.0608 26.1788 9.95394 26.05 9.87965C25.9213 9.80535 25.7752 9.76627 25.6266 9.76634C25.478 9.7664 25.332 9.8056 25.2033 9.88001L15.904 15.1269L6.59003 9.88014C6.46136 9.80577 6.31536 9.7666 6.16674 9.76655C6.01812 9.7665 5.87211 9.80559 5.74338 9.87988C5.61466 9.95417 5.50777 10.061 5.43344 10.1897C5.35912 10.3185 5.32001 10.4645 5.32001 10.6131V26.4393L3.50482 25.3914C2.9079 25.0464 2.41221 24.5505 2.06748 23.9535C1.72275 23.3564 1.5411 22.6792 1.54077 21.9898V9.94806C1.54109 9.25858 1.72275 8.58131 2.06751 7.98421C2.41228 7.38711 2.90803 6.89119 3.50499 6.54621L13.9328 0.526719C14.5297 0.181668 15.2072 0 15.8968 0C16.5865 0 17.264 0.181668 17.861 0.526719L28.2888 6.54621C28.8858 6.89112 29.3816 7.38703 29.7264 7.98414C30.0712 8.58126 30.2528 9.25857 30.253 9.94806V21.9898C30.2526 22.6792 30.0709 23.3564 29.7262 23.9535C29.3814 24.5505 28.8855 25.0464 28.2885 25.3912L26.4733 26.4391V10.613Z" fill="#44C9F6"/>
</g>
</g>
</g>
<defs>
<clipPath id="clip0_1_17">
<rect width="32" height="32" fill="white"/>
</clipPath>
<clipPath id="clip1_1_17">
<rect width="28.8" height="32" fill="white" transform="translate(1.54077)"/>
</clipPath>
</defs>
</svg>
